<svg width="43" height="42" viewBox="0 0 43 42" fill="none" xmlns="http://www.w3.org/2000/svg">
<g clip-path="url(#clip0)">
<path d="M37.8661 29.0847C44.6631 22.4399 44.663 11.6281 37.8661 4.98331C31.069 -1.66143 20.0093 -1.66143 13.2123 4.98331C7.44579 10.6205 6.57247 19.0044 10.5899 25.5513C10.5899 25.5513 10.8785 26.0246 10.4887 26.4053C8.26528 28.5788 1.5945 35.1001 1.5945 35.1001C-0.175827 36.8306 -0.597267 39.2505 0.972648 40.7855L1.24295 41.0494C2.81286 42.5844 5.28836 42.1726 7.05854 40.4419C7.05854 40.4419 13.7152 33.9344 15.9341 31.7654C16.3425 31.3661 16.8265 31.6482 16.8265 31.6482C23.5235 35.5754 32.0997 34.7218 37.8661 29.0847ZM16.4307 25.9383C11.4083 21.0285 11.4084 13.0398 16.4308 8.13C21.4532 3.22035 29.6251 3.22021 34.6474 8.13C39.6698 13.0396 39.6698 21.0285 34.6474 25.9383C29.625 30.8478 21.4532 30.8478 16.4307 25.9383Z" fill="#51BDED"/>
<path d="M17.5426 16.0228C17.3089 16.0228 17.0712 15.9779 16.8422 15.8833C15.9272 15.5047 15.4991 14.4727 15.8863 13.5781C18.3203 7.95511 24.9799 5.31634 30.7317 7.69574C31.6467 8.07431 32.0748 9.10638 31.6875 10.001C31.3001 10.8956 30.2446 11.3138 29.3292 10.9354C25.4049 9.31204 20.8609 11.1125 19.2004 14.9488C18.9099 15.6197 18.2436 16.0228 17.5426 16.0228Z" fill="#51BDED"/>
</g>
<defs>
<clipPath id="clip0">
<rect width="42.9633" height="42" fill="white"/>
</clipPath>
</defs>
</svg>
